<svg width="173" height="142" viewBox="0 0 173 142" fill="none" xmlns="http://www.w3.org/2000/svg">
<path d="M0 120.664L4.29207 119.551C4.44674 120.386 4.82181 121.07 5.41728 121.604C6.01276 122.138 6.79771 122.404 7.77212 122.404C8.6692 122.404 9.34588 122.246 9.80215 121.929C10.2584 121.612 10.4866 121.182 10.4866 120.641C10.4866 119.729 9.75189 119.164 8.28253 118.948L6.2641 118.692C4.42354 118.46 3.05471 117.946 2.15763 117.149C1.26055 116.353 0.812013 115.212 0.812013 113.727C0.812013 112.258 1.43456 111.044 2.67964 110.085C3.92473 109.126 5.59129 108.647 7.67932 108.647C9.67455 108.647 11.287 109.053 12.5166 109.865C13.7462 110.677 14.5466 111.755 14.9178 113.101L10.649 114.191C10.1695 112.66 9.14868 111.895 7.58652 111.895C6.81317 111.895 6.2293 112.049 5.83489 112.359C5.44048 112.668 5.24328 113.07 5.24328 113.565C5.24328 114.431 5.87742 114.942 7.14571 115.096L9.16414 115.351C11.0511 115.583 12.505 116.133 13.5258 116.999C14.5466 117.865 15.057 119.009 15.057 120.432C15.057 121.994 14.4229 123.259 13.1546 124.226C11.8863 125.192 10.0767 125.676 7.72572 125.676C5.52942 125.676 3.77006 125.219 2.44764 124.307C1.12522 123.394 0.309338 122.18 0 120.664Z" fill="#390879"/>
<path d="M17.9725 125.281V109.041H24.1206L30.8023 120.92L32.0552 120.108C31.3128 118.963 30.7869 117.931 30.4775 117.01C30.1682 116.09 30.0135 115.011 30.0135 113.774V109.041H34.2592V125.281H29.2479L21.383 111.268L20.1302 112.034C21.5222 114.338 22.2182 116.651 22.2182 118.971V125.281H17.9725Z" fill="#390879"/>
<path fill-rule="evenodd" clip-rule="evenodd" d="M48.0325 121.894L49.1229 125.281H53.879L48.0093 109.041H42.2092L36.3163 125.281H40.8172L41.954 121.894H48.0325ZM46.9653 118.553H43.0444L43.8564 116.14C44.1658 115.15 44.3204 113.727 44.3204 111.871V111.268H45.782V112.15C45.782 113.851 45.9212 115.181 46.1997 116.14L46.9653 118.553Z" fill="#390879"/>
<path d="M54.1728 117.254C54.1419 114.81 54.9655 112.753 56.6437 111.083C58.3218 109.412 60.4447 108.6 63.0122 108.647C65.1775 108.647 66.9253 109.107 68.2555 110.027C69.5856 110.947 70.4827 112.119 70.9467 113.542L66.701 115.05C66.0205 113.116 64.7677 112.15 62.9426 112.15C61.6898 112.15 60.6767 112.61 59.9033 113.53C59.13 114.45 58.7433 115.707 58.7433 117.3C58.7433 118.909 59.13 120.162 59.9033 121.059C60.6767 121.956 61.682 122.404 62.9194 122.404C63.9247 122.404 64.7406 122.165 65.367 121.685C65.9934 121.206 66.384 120.618 66.5386 119.922H62.061V116.674H70.8307V125.281H66.933C66.933 124.307 67.3197 123.216 68.0931 122.01H66.4458C65.5178 124.454 63.8551 125.676 61.4578 125.676C59.4471 125.707 57.7225 124.953 56.2841 123.414C54.8457 121.875 54.1419 119.821 54.1728 117.254Z" fill="#390879"/>
<path fill-rule="evenodd" clip-rule="evenodd" d="M84.1168 121.894L85.2072 125.281H89.9633L84.0936 109.041H78.2935L72.4006 125.281H76.9015L78.0383 121.894H84.1168ZM83.0496 118.553H79.1287L79.9407 116.14C80.2501 115.15 80.4047 113.727 80.4047 111.871V111.268H81.8663V112.15C81.8663 113.851 82.0055 115.181 82.284 116.14L83.0496 118.553Z" fill="#390879"/>
<path d="M90.1643 120.664L94.4564 119.551C94.6111 120.386 94.9861 121.07 95.5816 121.604C96.1771 122.138 96.962 122.404 97.9365 122.404C98.8335 122.404 99.5102 122.246 99.9665 121.929C100.423 121.612 100.651 121.182 100.651 120.641C100.651 119.729 99.9162 119.164 98.4469 118.948L96.4284 118.692C94.5879 118.46 93.2191 117.946 92.322 117.149C91.4249 116.353 90.9763 115.212 90.9763 113.727C90.9763 112.258 91.5989 111.044 92.844 110.085C94.0891 109.126 95.7556 108.647 97.8437 108.647C99.8389 108.647 101.451 109.053 102.681 109.865C103.911 110.677 104.711 111.755 105.082 113.101L100.813 114.191C100.334 112.66 99.313 111.895 97.7509 111.895C96.9775 111.895 96.3936 112.049 95.9992 112.359C95.6048 112.668 95.4076 113.07 95.4076 113.565C95.4076 114.431 96.0418 114.942 97.31 115.096L99.3285 115.351C101.215 115.583 102.669 116.133 103.69 116.999C104.711 117.865 105.221 119.009 105.221 120.432C105.221 121.994 104.587 123.259 103.319 124.226C102.051 125.192 100.241 125.676 97.8901 125.676C95.6938 125.676 93.9344 125.219 92.612 124.307C91.2896 123.394 90.4737 122.18 90.1643 120.664Z" fill="#390879"/>
<path d="M108.137 125.281V109.041H112.545V115.189H118.438V109.041H122.846V125.281H118.438V118.692H112.545V125.281H108.137Z" fill="#390879"/>
<path d="M130.796 125.281V118.948L124.949 109.041H129.798L131.237 111.593C131.732 112.49 132.045 113.298 132.176 114.017C132.308 114.737 132.374 115.723 132.374 116.975H133.812C133.812 115.831 133.897 114.845 134.067 114.017C134.237 113.19 134.554 112.335 135.018 111.454L136.294 109.041H140.981L135.204 118.948V125.281H130.796Z" fill="#390879"/>
<path d="M143.131 125.281V109.041H155.868V112.544H147.446V116.163H154.267V119.551H147.446V125.281H143.131Z" fill="#390879"/>
<path d="M162.333 125.281V112.382H157.09V109.041H172.007V112.382H166.741V125.281H162.333Z" fill="#390879"/>
<path d="M127.526 141.715V139.177H129.962V141.715H127.526Z" fill="#390879"/>
<path d="M132.635 136.68C132.635 135.137 133.078 133.869 133.964 132.874C134.851 131.879 135.991 131.382 137.385 131.382C138.44 131.382 139.327 131.653 140.044 132.194C140.761 132.735 141.249 133.432 141.506 134.285L139.902 134.813C139.469 133.54 138.63 132.904 137.385 132.904C136.532 132.904 135.828 133.236 135.274 133.899C134.719 134.562 134.441 135.489 134.441 136.68C134.441 137.898 134.715 138.835 135.263 139.492C135.812 140.148 136.525 140.476 137.405 140.476C138.786 140.476 139.699 139.732 140.146 138.243L141.77 138.812C141.431 139.813 140.887 140.595 140.136 141.156C139.384 141.718 138.474 141.999 137.405 141.999C135.957 141.999 134.8 141.515 133.934 140.547C133.068 139.58 132.635 138.291 132.635 136.68Z" fill="#390879"/>
<path fill-rule="evenodd" clip-rule="evenodd" d="M144.94 132.904C144.053 133.919 143.61 135.185 143.61 136.701C143.583 138.176 144.03 139.434 144.95 140.476C145.87 141.519 146.98 142.026 148.279 141.999C149.592 141.999 150.698 141.491 151.598 140.476C152.498 139.461 152.948 138.203 152.948 136.701C152.948 135.185 152.505 133.919 151.619 132.904C150.732 131.889 149.619 131.382 148.279 131.382C146.939 131.382 145.826 131.889 144.94 132.904ZM150.38 133.889C150.901 134.545 151.162 135.489 151.162 136.721C151.162 137.939 150.905 138.869 150.391 139.512C149.876 140.155 149.173 140.476 148.279 140.476C147.386 140.476 146.682 140.155 146.168 139.512C145.654 138.869 145.397 137.939 145.397 136.721C145.397 135.489 145.654 134.545 146.168 133.889C146.682 133.233 147.386 132.904 148.279 132.904C149.159 132.904 149.859 133.233 150.38 133.889Z" fill="#390879"/>
<path d="M155.905 141.715V131.666H157.55C157.55 132.262 157.293 132.938 156.778 133.696H157.732C158.287 132.153 159.228 131.382 160.554 131.382C161.258 131.382 161.87 131.588 162.391 132.001C162.912 132.414 163.268 132.979 163.457 133.696H164.229C164.364 133.114 164.706 132.583 165.254 132.103C165.802 131.622 166.448 131.382 167.192 131.382C168.248 131.382 169.091 131.717 169.72 132.387C170.349 133.057 170.664 133.96 170.664 135.097V141.715H168.938V135.564C168.938 133.804 168.201 132.925 166.726 132.925C165.954 132.925 165.372 133.148 164.98 133.595C164.641 134.001 164.415 134.474 164.3 135.016C164.185 135.557 164.127 136.234 164.127 137.046V141.715H162.442V135.564C162.442 133.804 161.698 132.925 160.209 132.925C159.451 132.925 158.883 133.148 158.504 133.595C157.922 134.312 157.631 135.462 157.631 137.046V141.715H155.905Z" fill="#390879"/>
<g filter="url(#filter0_d_0_7)">
<path fill-rule="evenodd" clip-rule="evenodd" d="M74.7766 23.1032C74.6432 14.9711 68.3189 11.1636 63.1864 11.3877C57.8889 11.6191 52.7198 15.6824 52.4668 22.2623C52.2788 27.153 55.8212 33.5042 64.0589 33.7605C64.1651 34.091 63.9282 34.3235 63.8068 34.5789C61.8059 38.7938 61.1872 43.2443 61.6511 47.848C61.9142 50.4602 62.6444 52.9683 63.7661 55.3526C64.0937 56.0492 64.4022 56.7444 64.4672 57.5374C64.6579 59.8575 63.3479 61.9234 61.1524 62.5806C58.8558 63.2681 56.6464 62.259 55.6036 60.2514C54.5345 58.1933 53.738 56.0248 53.1505 53.7832C52.0195 49.4674 51.7254 45.0919 52.3152 40.6671C52.3933 40.082 52.2449 39.7386 51.7518 39.391C48.0319 36.7675 45.4139 33.2926 44.0246 28.9511C41.1261 19.8935 44.5117 10.1769 52.62 5.06253C55.6065 3.17874 58.8823 2.19319 62.4265 2.02634C67.0205 1.81022 71.2345 2.92191 75.0783 5.43345C77.0668 6.73288 78.7621 8.35422 80.1669 10.2752C80.3439 10.5171 80.514 10.764 80.6926 11.0048C80.8611 11.2321 81.0886 11.3133 81.3672 11.2659C83.2315 10.9496 85.1133 10.9319 86.9944 10.9681C91.9438 11.0634 96.6295 12.2533 101.077 14.4188C103.37 15.5353 104.307 18.0201 103.528 20.2467C102.67 22.7023 100.126 23.976 97.6343 23.2224C97.2683 23.1118 96.9089 22.9661 96.5637 22.8003C93.3933 21.2786 90.0341 20.485 86.538 20.4181C83.1312 20.3528 79.8158 20.9561 76.658 22.296C76.0703 22.5448 75.4847 22.7992 74.7766 23.1032Z" fill="white"/>
<path d="M97.3207 66.7754C97.3065 70.6251 98.6234 73.7101 101.496 76.0482C103.599 77.7609 106.057 78.6491 108.749 78.5235C115.153 78.2249 119.252 73.3618 119.558 68.0223C119.744 64.7823 118.646 61.9561 116.388 59.6337C114.125 57.3079 111.278 56.2881 108.057 56.24C107.98 55.6741 108.282 55.2839 108.462 54.8666C109.245 53.054 109.819 51.1831 110.164 49.2366C111.075 44.1088 110.379 39.1989 108.2 34.4871C107.819 33.663 107.522 32.8338 107.534 31.9079C107.563 29.8443 108.914 27.9777 110.918 27.4113C112.931 26.8427 114.898 27.4743 116.135 29.2132C116.356 29.5249 116.543 29.867 116.705 30.2142C118.438 33.9247 119.541 37.7993 119.902 41.8953C120.12 44.381 120.063 46.8477 119.768 49.3125C119.696 49.9179 119.868 50.2539 120.35 50.5889C122.85 52.3253 124.823 54.5442 126.317 57.1946C127.767 59.765 128.595 62.5182 128.892 65.4519C129.252 69.0191 128.769 72.4647 127.292 75.7176C124.372 82.1524 119.408 86.1527 112.48 87.5809C104.46 89.2345 96.4398 85.9332 91.7777 79.5187C91.7274 79.4494 91.6677 79.3853 91.6284 79.3104C91.3327 78.7507 90.9297 78.6194 90.269 78.7012C84.2919 79.4401 78.5006 78.6946 72.9262 76.3874C72.1761 76.0771 71.4263 75.7539 70.7113 75.3719C67.7297 73.7791 67.3064 69.6925 70.0217 67.5161C71.2858 66.5027 72.7212 66.2867 74.2583 66.6618C74.7103 66.7719 75.1443 66.9758 75.569 67.1742C79.3689 68.9504 83.3617 69.6698 87.5454 69.4228C90.7041 69.2362 93.7023 68.4613 96.554 67.1017C96.7432 67.0119 96.9399 66.9371 97.3207 66.7754Z" fill="#B9DF12"/>
<path fill-rule="evenodd" clip-rule="evenodd" d="M71.1755 51.1876C71.5628 51.3063 71.6557 51.6664 71.8485 51.92C73.9515 54.6873 76.688 56.2962 80.1084 56.5701C84.7736 56.9438 89.5296 54.1483 91.3894 49.2178C91.5429 48.811 91.6777 48.3968 91.8216 47.9861C92.4948 46.0639 94.2383 44.9822 96.0567 45.0021C97.498 45.018 98.7593 45.3575 99.7249 46.4986C100.747 47.7071 101.089 49.0925 100.635 50.6453C100.303 51.784 99.77 52.8307 99.1325 53.8156C96.4374 57.979 92.6934 60.4407 87.8481 61.1567C81.7646 62.0554 74.9483 59.0674 71.6181 52.4163C71.428 52.0368 71.1998 51.6644 71.1755 51.1876Z" fill="white"/>
<path d="M100.832 39.4434C100.432 38.8693 100.155 38.4479 99.8551 38.0455C97.6493 35.0902 94.7385 33.5092 91.1387 33.4266C86.3698 33.3174 82.116 36.3896 80.469 41.0335C80.3523 41.3621 80.2631 41.7014 80.1442 42.0292C79.463 43.9087 78.006 44.9774 76.0776 44.9963C75.4887 45.0021 74.9008 45.0306 74.3143 44.8685C72.1689 44.2744 70.5253 41.7223 71.4286 39.1611C71.851 37.963 72.4055 36.8246 73.1268 35.7916C76.7162 30.6493 81.5991 28.1578 87.6813 28.7862C93.8762 29.4262 98.2041 32.9652 100.722 38.8665C100.77 38.979 100.771 39.1128 100.832 39.4434Z" fill="#B9DF12"/>
</g>
<defs>
<filter id="filter0_d_0_7" x="33.0019" y="0" width="114.004" height="114.004" filterUnits="userSpaceOnUse" color-interpolation-filters="sRGB">
<feFlood flood-opacity="0" result="BackgroundImageFix"/>
<feColorMatrix in="SourceAlpha" type="matrix" values="0 0 0 0 0 0 0 0 0 0 0 0 0 0 0 0 0 0 127 0" result="hardAlpha"/>
<feOffset dx="4" dy="12"/>
<feGaussianBlur stdDeviation="7"/>
<feColorMatrix type="matrix" values="0 0 0 0 0.223529 0 0 0 0 0.0313726 0 0 0 0 0.47451 0 0 0 0.04 0"/>
<feBlend mode="normal" in2="BackgroundImageFix" result="effect1_dropShadow_0_7"/>
<feBlend mode="normal" in="SourceGraphic" in2="effect1_dropShadow_0_7" result="shape"/>
</filter>
</defs>
</svg>
